# xmcd
#
# Track frame offsets:
#	150
#	19038
#	34748
#	45494
#	56349
#	66490
#	78939
#	93755
#	105574
#	119330
#
# Disc length: 1722 seconds
# Revision: 0
# Processed by: cddbd v1.5.2PL0 Copyright (c) Steve Scherf et al.
# Submitted via: dBpowerAMP V12.0
#
DISCID=7406b80a
DTITLE=Alina Tatum - Yodelin' Crazy
DYEAR=2002
DGENRE=Country
TTITLE0=Swiss, Cowboy, And Country
TTITLE1=Yodelin' Crazy
TTITLE2=Your Cheatin' Heart
TTITLE3=Till There's Not A Cow In Texas
TTITLE4=Tennessee Yodeler
TTITLE5=Stand By Your Man
TTITLE6=Miles And Miles of Texas
TTITLE7=Yodeling Blues
TTITLE8=Chime Bells
TTITLE9=National Anthem
EXTD=
EXTT0=
EXTT1=
EXTT2=
EXTT3=
EXTT4=
EXTT5=
EXTT6=
EXTT7=
EXTT8=
EXTT9=
PLAYORDER=
